Coordinates
version=1
nRows=32
nColumns=18
inDegrees=yes

Units are S.I. units (second, meters, Newtons, ...)
If the header above contains a line with 'inDegrees', this indicates whether rotational values are in degrees (yes) or radians (no).

endheader
time	ground_thorax_rot_x	ground_thorax_rot_y	ground_thorax_rot_z	ground_thorax_tx	ground_thorax_ty	ground_thorax_tz	clav_prot	clav_elev	scapula_abduction	scapula_elevation	scapula_upward_rot	scapula_winging	plane_elv	shoulder_elv	axial_rot	elbow_flexion	pro_sup
      0.00000000	      2.35828520	    -16.41778870	    -19.13427000	     -0.01538287	     -0.01377025	      0.03515198	    -23.73171496	    -13.90156767	    -17.88014485	    -10.48783709	      9.96063903	     33.52423250	      0.76435561	     33.13310832	     -8.25348081	     11.58223483	     63.92270238
      0.02000000	      2.32467149	    -16.36358751	    -19.07739346	     -0.01524299	     -0.01356117	      0.03512190	    -23.80244069	    -13.97367026	    -17.95411225	    -10.54546737	      9.96666670	     33.57272938	      0.65811322	     33.12266341	     -8.31273602	     11.52268069	     63.92270238
      0.04000000	      2.31008742	    -16.34037250	    -19.06970019	     -0.01509359	     -0.01348535	      0.03512992	    -23.83066588	    -13.98182947	    -17.99908130	    -10.55027250	      9.95613770	     33.58583828	      0.69762073	     33.17571552	     -8.33496796	     11.52440422	     63.92270238
      0.06000000	      2.29294304	    -16.32085169	    -19.07536031	     -0.01494290	     -0.01345762	      0.03511693	    -23.85167449	    -13.98024946	    -18.03254966	    -10.54965169	      9.95377112	     33.59120122	      0.78198537	     33.23419436	     -8.32920428	     11.49842801	     63.92270238
      0.08000000	      2.29072025	    -16.28518081	    -19.05946590	     -0.01480688	     -0.01335202	      0.03513066	    -23.90230766	    -13.99815222	    -18.11405169	    -10.55974749	      9.93118683	     33.61675032	      0.81133285	     33.30191075	     -8.37671488	     11.51682926	     63.92270238
      0.10000000	      2.26456586	    -16.27395562	    -19.04093674	     -0.01466486	     -0.01330827	      0.03514157	    -23.90144855	    -13.99225565	    -18.12437545	    -10.55132661	      9.91468547	     33.61725164	      0.86125934	     33.34597406	     -8.39223607	     11.50026393	     63.92270238
      0.12000000	      2.22425680	    -16.24916828	    -19.02348598	     -0.01452458	     -0.01323771	      0.03517921	    -23.92474940	    -14.01873568	    -18.16669498	    -10.56386193	      9.88265410	     33.64120735	      0.88746819	     33.37202148	     -8.43903793	     11.50576213	     63.92270238
      0.14000000	      2.21473173	    -16.22968835	    -19.02397502	     -0.01440911	     -0.01320098	      0.03518266	    -23.90569719	    -14.01740858	    -18.14208337	    -10.56034806	      9.87649110	     33.63682891	      0.94134290	     33.42998592	     -8.45121691	     11.47020467	     63.92270238
      0.16000000	      2.19059528	    -16.20923805	    -19.01107225	     -0.01427150	     -0.01313345	      0.03523699	    -23.90091620	    -14.04316928	    -18.13217340	    -10.57545483	      9.86295390	     33.64940556	      0.95956506	     33.45751260	     -8.48499931	     11.46542226	     63.92270238
      0.18000000	      2.15169407	    -16.17370724	    -19.00264300	     -0.01415341	     -0.01308321	      0.03528138	    -23.88647871	    -14.07506237	    -18.11086145	    -10.59205410	      9.83953549	     33.66403360	      0.97039667	     33.47671033	     -8.52897385	     11.45398834	     63.92270238
      0.20000000	      2.13232721	    -16.16752028	    -19.00382311	     -0.01408302	     -0.01311010	      0.03534389	    -23.83033843	    -14.05498644	    -18.04177037	    -10.57131020	      9.82685909	     33.64301252	      1.12694183	     33.52548112	     -8.50289211	     11.35126642	     63.92270238
      0.22000000	      2.00089933	    -16.11050003	    -19.04067367	     -0.01395260	     -0.01306806	      0.03542727	    -23.81009721	    -14.20182458	    -18.00326866	    -10.65450722	      9.73628275	     33.71941310	      1.01656650	     33.53222748	     -8.70082750	     11.42388733	     63.92270238
      0.24000000	      1.96858318	    -16.07614242	    -19.02322928	     -0.01385757	     -0.01300476	      0.03556585	    -23.78044797	    -14.24017915	    -17.96283885	    -10.67221478	      9.70159686	     33.73517076	      1.03255551	     33.54787831	     -8.75735309	     11.41036776	     63.92270238
      0.26000000	      1.95477923	    -16.04869126	    -19.03436752	     -0.01379774	     -0.01305787	      0.03569109	    -23.71933296	    -14.22130262	    -17.88773515	    -10.65124212	      9.68564411	     33.71383240	      1.19422212	     33.59499743	     -8.72307163	     11.33684222	     63.92270238
      0.28000000	      1.98128804	    -15.96516316	    -19.01885182	     -0.01373222	     -0.01287387	      0.03584435	    -23.74033190	    -14.31684802	    -17.87497447	    -10.72471464	      9.69663372	     33.75946135	      1.05060686	     33.61420923	     -8.79086565	     11.38852423	     63.92270238
      0.30000000	      1.89898638	    -15.82728701	    -19.01262613	     -0.01373815	     -0.01294300	      0.03583839	    -23.69413064	    -14.31468274	    -17.82942123	    -10.71070500	      9.65610662	     33.75363352	      1.06705657	     33.58390792	     -8.80438944	     11.39808318	     63.92270238
      0.32000000	      1.90141967	    -15.78450009	    -18.98046504	     -0.01367307	     -0.01284942	      0.03609851	    -23.68347115	    -14.33852983	    -17.80435252	    -10.72690105	      9.65458350	     33.76182180	      1.08928533	     33.58675683	     -8.80731603	     11.41044685	     63.92270238
      0.34000000	      1.60713784	    -15.67448698	    -19.11692459	     -0.01366559	     -0.01293365	      0.03612830	    -23.56337272	    -14.59564444	    -17.64911211	    -10.85083294	      9.42560328	     33.88824127	      0.89335399	     33.67048161	     -9.01759263	     11.54511911	     63.92270238
      0.36000000	      1.54196822	    -15.56120664	    -19.16803407	     -0.01366612	     -0.01295082	      0.03619278	    -23.49245474	    -14.64481953	    -17.57828922	    -10.85834116	      9.32682293	     33.91039268	      0.84255814	     33.79216586	     -9.07372221	     11.63904615	     63.92270238
      0.38000000	      1.50778000	    -15.46177615	    -19.26378946	     -0.01365074	     -0.01305376	      0.03629547	    -23.45084782	    -14.64746449	    -17.51471394	    -10.85817932	      9.32743207	     33.90030959	      0.92562222	     33.87470972	     -8.99232716	     11.69447769	     63.92270238
      0.40000000	      1.43809413	    -15.26780256	    -19.30061476	     -0.01364475	     -0.01304413	      0.03628594	    -23.44278285	    -14.68158758	    -17.52016096	    -10.86867714	      9.27130372	     33.92423484	      0.74384274	     33.92089050	     -8.99428239	     11.88639486	     63.92270238
      0.42000000	      1.31479426	    -15.09519573	    -19.35239566	     -0.01359555	     -0.01300595	      0.03631708	    -23.42601158	    -14.76542747	    -17.53629426	    -10.89547508	      9.13655581	     33.98321421	      0.50488491	     34.00972065	     -8.94336309	     12.12221558	     63.92270238
      0.44000000	      1.19175744	    -14.91282672	    -19.45531802	     -0.01352964	     -0.01297472	      0.03628668	    -23.39460621	    -14.87030390	    -17.53689373	    -10.92998013	      8.97448039	     34.05314839	      0.26322138	     34.17232341	     -8.72739435	     12.31814727	     63.92270238
      0.46000000	      1.09797939	    -14.72320241	    -19.57285837	     -0.01341073	     -0.01302801	      0.03622588	    -23.37730529	    -14.89741966	    -17.55238305	    -10.92533302	      8.88002522	     34.07883779	      0.03761223	     34.30653527	     -8.51520810	     12.56186280	     63.92270238
      0.48000000	      0.93875809	    -14.52386045	    -19.62793084	     -0.01321832	     -0.01277621	      0.03614352	    -23.33876521	    -15.06602014	    -17.58596706	    -10.97461164	      8.59150553	     34.19993116	     -0.45294428	     34.50571844	     -7.51878765	     12.77630417	     63.92270238
      0.50000000	      0.84728171	    -14.32797075	    -19.80442798	     -0.01298901	     -0.01288795	      0.03605877	    -23.34556342	    -15.05207915	    -17.61064654	    -10.96073374	      8.57528202	     34.19855900	     -0.72638665	     34.58999485	     -7.46860811	     13.05848382	     63.92270238
      0.52000000	      0.71948384	    -14.07715951	    -19.89652738	     -0.01265821	     -0.01270006	      0.03592416	    -23.37128729	    -15.15725811	    -17.73830974	    -10.97921794	      8.33522600	     34.29905673	     -1.24946138	     34.76255543	     -6.44274400	     13.28870874	     63.92270238
      0.54000000	      0.60961617	    -13.88762135	    -20.14053953	     -0.01230686	     -0.01295771	      0.03582505	    -23.35878040	    -15.06563712	    -17.75194289	    -10.91351471	      8.34364232	     34.25265574	     -1.38087305	     34.82869952	     -6.37300628	     13.34787221	     63.92270238
      0.56000000	      0.46835358	    -13.64142613	    -20.27794306	     -0.01174545	     -0.01272605	      0.03565750	    -23.38589547	    -15.20012959	    -17.84598214	    -10.96423294	      8.14623493	     34.35880989	     -2.21588342	     34.93632755	     -5.38017057	     13.75901910	     63.92270238
      0.58000000	      0.39083271	    -13.39743054	    -20.42596196	     -0.01116299	     -0.01263249	      0.03549646	    -23.39495826	    -15.17592918	    -17.94118186	    -10.91390182	      8.01421796	     34.37557125	     -2.85934765	     35.03979623	     -4.68098954	     13.99625589	     63.92270238
      0.60000000	      0.26770021	    -13.21730841	    -20.75948072	     -0.01050335	     -0.01297453	      0.03542368	    -23.38176547	    -15.04503807	    -17.98238248	    -10.81330981	      7.99919902	     34.31578218	     -3.05781160	     35.08936002	     -4.58630562	     13.99700713	     63.92270238
      0.62000000	      0.12915798	    -12.97019427	    -20.88327222	     -0.00959540	     -0.01262776	      0.03527666	    -23.39895594	    -15.16657561	    -18.07498655	    -10.84985482	      7.78568027	     34.41626119	     -4.14152264	     35.11153648	     -3.12134864	     14.24364440	     63.92270238
